<svg xmlns="http://www.w3.org/2000/svg" viewBox="0 0 512 512">
  <rect width="512" height="512" fill="#1e293b"/>
  <polygon points="256,96 96,244 136,244 136,420 376,420 376,244 416,244" fill="#2563eb"/>
  <rect x="218" y="314" width="76" height="106" rx="5" fill="#1e293b"/>
  <rect x="148" y="268" width="56" height="56" rx="5" fill="#bfdbfe"/>
  <line x1="176" y1="268" x2="176" y2="324" stroke="#1e293b" stroke-width="5"/>
  <line x1="148" y1="296" x2="204" y2="296" stroke="#1e293b" stroke-width="5"/>
  <rect x="308" y="268" width="56" height="56" rx="5" fill="#bfdbfe"/>
  <line x1="336" y1="268" x2="336" y2="324" stroke="#1e293b" stroke-width="5"/>
  <line x1="308" y1="296" x2="364" y2="296" stroke="#1e293b" stroke-width="5"/>
  <circle cx="256" cy="178" r="30" fill="#10b981"/>
  <rect x="252" y="158" width="8" height="40" rx="3" fill="#fff"/>
  <rect x="240" y="170" width="32" height="8" rx="3" fill="#fff"/>
</svg>
