<svg xmlns="http://www.w3.org/2000/svg" viewBox="0 0 512 512">
  <rect width="512" height="512" rx="96" fill="#1e293b"/>
  <polygon points="256,64 56,232 104,232 104,440 408,440 408,232 456,232" fill="#2563eb"/>
  <rect x="210" y="306" width="92" height="134" rx="6" fill="#1e293b"/>
  <rect x="120" y="258" width="68" height="68" rx="6" fill="#bfdbfe"/>
  <line x1="154" y1="258" x2="154" y2="326" stroke="#1e293b" stroke-width="6"/>
  <line x1="120" y1="292" x2="188" y2="292" stroke="#1e293b" stroke-width="6"/>
  <rect x="324" y="258" width="68" height="68" rx="6" fill="#bfdbfe"/>
  <line x1="358" y1="258" x2="358" y2="326" stroke="#1e293b" stroke-width="6"/>
  <line x1="324" y1="292" x2="392" y2="292" stroke="#1e293b" stroke-width="6"/>
  <circle cx="256" cy="168" r="38" fill="#10b981"/>
  <rect x="252" y="144" width="8" height="48" rx="3" fill="#fff"/>
  <rect x="236" y="160" width="40" height="8" rx="3" fill="#fff"/>
</svg>
